<?xml version="1.0" encoding="UTF-8"?>
<svg xmlns="http://www.w3.org/2000/svg" width="800.000" height="600.000" viewBox="0.0 0.0 800.000 600.000" version="1.1">
  <title>Produce by Acme CAD Converter</title>
  <desc>Produce by Acme CAD Converter</desc>
<path d="M166.26 354.66L166.26 245.34"
fill="none" stroke="black" stroke-width="0.5"/>
<path d="M166.26 245.34L75.15 245.34"
fill="none" stroke="black" stroke-width="0.5"/>
<path d="M75.15 245.34L75.15 354.66"
fill="none" stroke="black" stroke-width="0.5"/>
<path d="M75.15 354.66L166.26 354.66"
fill="none" stroke="black" stroke-width="0.5"/>
<path d="M93.37 290.89L148.03 290.89"
fill="none" stroke="black" stroke-width="0.5"/>
<path d="M148.03 290.89L148.03 263.56"
fill="none" stroke="black" stroke-width="0.5"/>
<path d="M148.03 263.56L93.37 263.56"
fill="none" stroke="black" stroke-width="0.5"/>
<path d="M93.37 263.56L93.37 290.89"
fill="none" stroke="black" stroke-width="0.5"/>
<path d="M93.37 309.11L148.03 309.11"
fill="none" stroke="black" stroke-width="0.5"/>
<path d="M148.03 309.11L148.03 336.44"
fill="none" stroke="black" stroke-width="0.5"/>
<path d="M148.03 336.44L93.37 336.44"
fill="none" stroke="black" stroke-width="0.5"/>
<path d="M93.37 336.44L93.37 309.11"
fill="none" stroke="black" stroke-width="0.5"/>
<path d="M2.26 300L20.48 300"
fill="none" stroke="black" stroke-width="0.5"/>
<path d="M20.48 300L20.48 336.44"
fill="none" stroke="black" stroke-width="0.5"/>
<path d="M20.48 336.44L56.93 336.44"
fill="none" stroke="black" stroke-width="0.5"/>
<path d="M56.93 336.44L56.93 263.56"
fill="none" stroke="black" stroke-width="0.5"/>
<path d="M56.93 263.56L2.26 263.56"
fill="none" stroke="black" stroke-width="0.5"/>
<path d="M2.26 263.56L2.26 245.34"
fill="none" stroke="black" stroke-width="0.5"/>
<path d="M2.26 245.34L75.15 245.34"
fill="none" stroke="black" stroke-width="0.5"/>
<path d="M75.15 354.66L2.26 354.66"
fill="none" stroke="black" stroke-width="0.5"/>
<path d="M2.26 354.66L2.26 300"
fill="none" stroke="black" stroke-width="0.5"/>
<path d="M257.36 309.11L257.36 245.34"
fill="none" stroke="black" stroke-width="0.5"/>
<path d="M257.36 245.34L166.26 245.34"
fill="none" stroke="black" stroke-width="0.5"/>
<path d="M166.26 354.66L184.48 354.66"
fill="none" stroke="black" stroke-width="0.5"/>
<path d="M184.48 290.89L239.14 290.89"
fill="none" stroke="black" stroke-width="0.5"/>
<path d="M239.14 290.89L239.14 263.56"
fill="none" stroke="black" stroke-width="0.5"/>
<path d="M239.14 263.56L184.48 263.56"
fill="none" stroke="black" stroke-width="0.5"/>
<path d="M184.48 263.56L184.48 290.89"
fill="none" stroke="black" stroke-width="0.5"/>
<path d="M184.48 309.11L257.36 309.11"
fill="none" stroke="black" stroke-width="0.5"/>
<path d="M184.48 354.66L184.48 309.11"
fill="none" stroke="black" stroke-width="0.5"/>
<path d="M433.31 354.66L456.93 248.19"
fill="none" stroke="black" stroke-width="0.5"/>
<path d="M460.49 245.34L459.52 245.47M459.52 245.47L458.61 245.86M458.61 245.86L457.85 246.47M457.85 246.47L457.27 247.27M457.27 247.27L456.93 248.19"
fill="none" stroke="black" stroke-width="0.5"/>
<path d="M460.49 245.34L497.24 245.34"
fill="none" stroke="black" stroke-width="0.5"/>
<path d="M500.8 248.19L500.46 247.27M500.46 247.27L499.88 246.47M499.88 246.47L499.11 245.86M499.11 245.86L498.21 245.47M498.21 245.47L497.24 245.34"
fill="none" stroke="black" stroke-width="0.5"/>
<path d="M524.42 354.66L500.8 248.19"
fill="none" stroke="black" stroke-width="0.5"/>
<path d="M524.42 354.66L524.42 255.4"
fill="none" stroke="black" stroke-width="0.5"/>
<path d="M615.52 344.6L615.52 255.4"
fill="none" stroke="black" stroke-width="0.5"/>
<path d="M609.08 346.93L609.91 347.67M609.91 347.67L610.93 348.12M610.93 348.12L612.03 348.24M612.03 348.24L613.12 348.02M613.12 348.02L614.09 347.49M614.09 347.49L614.86 346.69M614.86 346.69L615.35 345.7M615.35 345.7L615.52 344.6"
fill="none" stroke="black" stroke-width="0.5"/>
<path d="M530.86 253.07L609.08 346.93"
fill="none" stroke="black" stroke-width="0.5"/>
<path d="M530.86 253.07L530.03 252.33M530.03 252.33L529.01 251.88M529.01 251.88L527.91 251.76M527.91 251.76L526.82 251.98M526.82 251.98L525.85 252.51M525.85 252.51L525.08 253.31M525.08 253.31L524.59 254.3M524.59 254.3L524.42 255.4"
fill="none" stroke="black" stroke-width="0.5"/>
<path d="M706.63 344.6L706.63 245.34"
fill="none" stroke="black" stroke-width="0.5"/>
<path d="M700.19 346.93L701.02 347.67M701.02 347.67L702.03 348.12M702.03 348.12L703.14 348.24M703.14 348.24L704.23 348.02M704.23 348.02L705.2 347.49M705.2 347.49L705.97 346.69M705.97 346.69L706.46 345.7M706.46 345.7L706.63 344.6"
fill="none" stroke="black" stroke-width="0.5"/>
<path d="M621.97 253.07L700.19 346.93"
fill="none" stroke="black" stroke-width="0.5"/>
<path d="M621.97 253.07L621.13 252.33M621.13 252.33L620.12 251.88M620.12 251.88L619.02 251.76M619.02 251.76L617.93 251.98M617.93 251.98L616.95 252.51M616.95 252.51L616.18 253.31M616.18 253.31L615.69 254.3M615.69 254.3L615.52 255.4"
fill="none" stroke="black" stroke-width="0.5"/>
<path d="M752.18 300L752.18 354.66"
fill="none" stroke="black" stroke-width="0.5"/>
<path d="M752.18 300L706.63 245.34"
fill="none" stroke="black" stroke-width="0.5"/>
<path d="M752.18 300L797.74 245.34"
fill="none" stroke="black" stroke-width="0.5"/>
</svg>
