<?xml version="1.0" encoding="UTF-8"?>
<svg xmlns="http://www.w3.org/2000/svg" width="800.000" height="600.000" viewBox="0.0 0.0 800.000 600.000" version="1.1">
  <title>Produce by Acme CAD Converter</title>
  <desc>Produce by Acme CAD Converter</desc>
<path d="M2.26 419.32L53.83 186.91"
fill="none" stroke="black" stroke-width="0.5"/>
<path d="M61.59 180.68L60.06 180.83M60.06 180.83L58.59 181.27M58.59 181.27L57.23 181.98M57.23 181.98L56.04 182.94M56.04 182.94L55.05 184.11M55.05 184.11L54.3 185.45M54.3 185.45L53.83 186.91"
fill="none" stroke="black" stroke-width="0.5"/>
<path d="M61.59 180.68L141.8 180.68"
fill="none" stroke="black" stroke-width="0.5"/>
<path d="M149.57 186.91L149.09 185.45M149.09 185.45L148.35 184.11M148.35 184.11L147.36 182.94M147.36 182.94L146.16 181.98M146.16 181.98L144.8 181.27M144.8 181.27L143.33 180.83M143.33 180.83L141.8 180.68"
fill="none" stroke="black" stroke-width="0.5"/>
<path d="M201.13 419.32L149.57 186.91"
fill="none" stroke="black" stroke-width="0.5"/>
<path d="M201.13 419.32L201.13 202.65"
fill="none" stroke="black" stroke-width="0.5"/>
<path d="M400 397.35L400 202.65"
fill="none" stroke="black" stroke-width="0.5"/>
<path d="M385.93 402.44L387.21 403.66M387.21 403.66L388.72 404.58M388.72 404.58L390.4 405.13M390.4 405.13L392.15 405.3M392.15 405.3L393.91 405.08M393.91 405.08L395.57 404.48M395.57 404.48L397.05 403.53M397.05 403.53L398.29 402.27M398.29 402.27L399.23 400.77M399.23 400.77L399.8 399.1M399.8 399.1L400 397.35"
fill="none" stroke="black" stroke-width="0.5"/>
<path d="M215.2 197.56L385.93 402.44"
fill="none" stroke="black" stroke-width="0.5"/>
<path d="M215.2 197.56L213.92 196.34M213.92 196.34L212.41 195.42M212.41 195.42L210.73 194.87M210.73 194.87L208.98 194.7M208.98 194.7L207.23 194.92M207.23 194.92L205.57 195.52M205.57 195.52L204.08 196.47M204.08 196.47L202.84 197.73M202.84 197.73L201.91 199.23M201.91 199.23L201.33 200.9M201.33 200.9L201.13 202.65"
fill="none" stroke="black" stroke-width="0.5"/>
<path d="M598.87 397.35L598.87 180.68"
fill="none" stroke="black" stroke-width="0.5"/>
<path d="M584.8 402.44L586.08 403.66M586.08 403.66L587.59 404.58M587.59 404.58L589.27 405.13M589.27 405.13L591.02 405.3M591.02 405.3L592.77 405.08M592.77 405.08L594.43 404.48M594.43 404.48L595.92 403.53M595.92 403.53L597.16 402.27M597.16 402.27L598.09 400.77M598.09 400.77L598.67 399.1M598.67 399.1L598.87 397.35"
fill="none" stroke="black" stroke-width="0.5"/>
<path d="M414.07 197.56L584.8 402.44"
fill="none" stroke="black" stroke-width="0.5"/>
<path d="M414.07 197.56L412.79 196.34M412.79 196.34L411.28 195.42M411.28 195.42L409.6 194.87M409.6 194.87L407.85 194.7M407.85 194.7L406.09 194.92M406.09 194.92L404.43 195.52M404.43 195.52L402.95 196.47M402.95 196.47L401.71 197.73M401.71 197.73L400.77 199.23M400.77 199.23L400.2 200.9M400.2 200.9L400 202.65"
fill="none" stroke="black" stroke-width="0.5"/>
<path d="M698.3 300L698.3 419.32"
fill="none" stroke="black" stroke-width="0.5"/>
<path d="M698.3 300L598.87 180.68"
fill="none" stroke="black" stroke-width="0.5"/>
<path d="M698.3 300L797.74 180.68"
fill="none" stroke="black" stroke-width="0.5"/>
</svg>
